<svg xmlns="http://www.w3.org/2000/svg" xmlns:xlink="http://www.w3.org/1999/xlink" width="47" height="40" viewBox="0 0 47 40">
  <defs>
    <clipPath id="clip-path">
      <rect id="Rectangle_3" data-name="Rectangle 3" width="47" height="40" transform="translate(238 694)" fill="#fff" stroke="#707070" stroke-width="1"/>
    </clipPath>
  </defs>
  <g id="Mask_Group_2" data-name="Mask Group 2" transform="translate(-238 -694)" clip-path="url(#clip-path)">
    <g id="logo" transform="translate(238 694)">
      <path id="Path_1" data-name="Path 1" d="M59.04,35V5.2h6L76.2,20H73.4L84.24,5.2h6V35h-6.2V12.04l2.48.56L75.04,27.4h-.8L63.16,12.6l2.08-.56V35Zm42.8.48a10.037,10.037,0,0,1-4.08-.76,5.926,5.926,0,0,1-2.64-2.16,6.706,6.706,0,0,1-.08-6.64,6.573,6.573,0,0,1,2.56-2.4,13.327,13.327,0,0,1,4.36-1.36l6.68-1.08v4.4l-5.6,1a4.048,4.048,0,0,0-1.96.84,2,2,0,0,0-.68,1.64,1.829,1.829,0,0,0,.76,1.56,3.085,3.085,0,0,0,1.88.56,5.146,5.146,0,0,0,2.6-.64,4.44,4.44,0,0,0,1.72-1.72,4.83,4.83,0,0,0,.64-2.44V20.6a2.611,2.611,0,0,0-1-2.08,3.873,3.873,0,0,0-2.64-.84,4.786,4.786,0,0,0-2.84.88,5.106,5.106,0,0,0-1.76,2.32l-4.8-2.28A7.8,7.8,0,0,1,97,15.44a9.712,9.712,0,0,1,3.36-2.04,12.327,12.327,0,0,1,4.28-.72,11.314,11.314,0,0,1,4.88,1,7.694,7.694,0,0,1,3.28,2.8A7.135,7.135,0,0,1,114,20.6V35h-5.6V31.48l1.36-.24a10.991,10.991,0,0,1-2.12,2.4,7.821,7.821,0,0,1-2.6,1.36A10.074,10.074,0,0,1,101.844,35.48ZM118.4,35V4.72h6V35Zm20.91.48a11.613,11.613,0,0,1-6.04-1.52,10.8,10.8,0,0,1-3.96-4.16,11.957,11.957,0,0,1-1.4-5.76,11.705,11.705,0,0,1,1.44-5.84,11.073,11.073,0,0,1,3.96-4.04,10.718,10.718,0,0,1,5.6-1.48,11.792,11.792,0,0,1,4.6.84,9.042,9.042,0,0,1,3.36,2.28,9.921,9.921,0,0,1,2.12,3.44,11.871,11.871,0,0,1,.72,4.2,10.183,10.183,0,0,1-.08,1.28,3.754,3.754,0,0,1-.2,1.04h-16.36v-4.4h12.96l-2.84,2.08a5.543,5.543,0,0,0-.04-3.04,3.944,3.944,0,0,0-1.56-2.12,4.378,4.378,0,0,0-2.68-.8,4.659,4.659,0,0,0-2.68.76,4.565,4.565,0,0,0-1.68,2.24,8.789,8.789,0,0,0-.44,3.6,6.674,6.674,0,0,0,.44,3.24,4.809,4.809,0,0,0,1.84,2.2,5.635,5.635,0,0,0,3,.76,5.4,5.4,0,0,0,2.72-.64,4.563,4.563,0,0,0,1.8-1.76l4.8,2.28a7.152,7.152,0,0,1-2.04,2.8,9.94,9.94,0,0,1-3.24,1.88A12.708,12.708,0,0,1,139.315,35.48ZM153.248,35V13.16h5.6v4.32l-.32-.96a5.354,5.354,0,0,1,2.44-2.88,8.073,8.073,0,0,1,4-.96,8.631,8.631,0,0,1,4.32,1.04,7.32,7.32,0,0,1,2.92,2.92,8.627,8.627,0,0,1,1.04,4.32V35h-6V22.24a4.4,4.4,0,0,0-.52-2.2,3.464,3.464,0,0,0-1.4-1.44,4.012,4.012,0,0,0-2.08-.52,4.155,4.155,0,0,0-2.08.52,3.741,3.741,0,0,0-1.44,1.44,4.7,4.7,0,0,0-.48,2.2V35Z" fill="#0a0a0a"/>
      <path id="Path_2" data-name="Path 2" d="M32.926,8.345A17.621,17.621,0,0,0,26.886,5.82L25.416,0H20.985l-1.47,5.819a17.621,17.621,0,0,0-6.041,2.525L8.362,5.281l-.748.756L5.977,7.69l-.748.756,3.034,5.163a17.992,17.992,0,0,0-2.5,6.1L0,21.194v4.475l5.762,1.485a18.048,18.048,0,0,0,1.5,4.339,3.849,3.849,0,0,1-.114,3.66L5.228,38.418l.748.755L6.8,40l5.72-5.777a3.639,3.639,0,0,0,.528-4.449A12.151,12.151,0,0,1,14.964,14.7a11.9,11.9,0,0,1,16.472,0,12.15,12.15,0,0,1,1.921,15.072,3.639,3.639,0,0,0,.528,4.449L39.6,40l.819-.827.748-.755-1.918-3.264a3.849,3.849,0,0,1-.114-3.66,18.049,18.049,0,0,0,1.5-4.339L46.4,25.669V21.194l-5.762-1.485a17.993,17.993,0,0,0-2.5-6.1l3.034-5.163-.748-.756L38.786,6.036l-.748-.756Z" fill="#eb3300"/>
      <path id="Path_3" data-name="Path 3" d="M26.07,31.776V28.593h-.005a.991.991,0,0,1,.574-1.012c4.648-2.117,2.991-8.619-.835-10.634a40.448,40.448,0,0,0-.174,4.777l-4.883.008c.071-1.5.01-3.028.024-4.537-.03-.712-.78.109-1.071.247-2.3,2.066-4.035,6.321-1.553,8.863.513.7,2.083,1.259,2.219,2.019,0,.079,0,.17,0,.269v3.176a13.5,13.5,0,0,0-9.579,8.06h6.856a7.53,7.53,0,0,1,11.116,0h6.856A13.5,13.5,0,0,0,26.07,31.776Z" fill="#0a0a0a"/>
    </g>
  </g>
</svg>
