<svg xmlns="http://www.w3.org/2000/svg" xmlns:xlink="http://www.w3.org/1999/xlink" width="47" height="40" viewBox="0 0 47 40">
  <defs>
    <clipPath id="clip-path">
      <rect id="Rectangle_4" data-name="Rectangle 4" width="47" height="40" transform="translate(305 575)" fill="#fff" stroke="#707070" stroke-width="1"/>
    </clipPath>
  </defs>
  <g id="logoWhite" transform="translate(-305 -575)" clip-path="url(#clip-path)">
    <g id="logo-white" transform="translate(305 575)">
      <path id="Path_4" data-name="Path 4" d="M72.084,35,65.209,12.6h-.176q.039.8.117,2.422.1,1.6.176,3.418t.078,3.281V35h-5.41V6.445h8.242l6.758,21.836h.117L82.279,6.445h8.242V35H84.877V21.484q0-1.348.039-3.105.059-1.758.137-3.34l.117-2.4h-.176L77.631,35Zm34.121-22.285q4.4,0,6.738,1.914t2.344,5.82V35h-4.16l-1.152-2.969h-.157a11.066,11.066,0,0,1-1.914,1.914,6.56,6.56,0,0,1-2.246,1.094,11.706,11.706,0,0,1-3.086.351,7.917,7.917,0,0,1-3.476-.742,5.521,5.521,0,0,1-2.4-2.266,7.811,7.811,0,0,1-.879-3.906,5.729,5.729,0,0,1,2.441-5.117q2.441-1.66,7.324-1.836l3.789-.117v-.957a3.211,3.211,0,0,0-.9-2.519,3.628,3.628,0,0,0-2.5-.8,10.928,10.928,0,0,0-3.106.449,24.112,24.112,0,0,0-3.047,1.133l-1.973-4.023a16.94,16.94,0,0,1,3.886-1.445A18.864,18.864,0,0,1,106.205,12.715Zm3.164,12.168-2.305.078A6.651,6.651,0,0,0,103.041,26a3.161,3.161,0,0,0-1.113,2.52,2.259,2.259,0,0,0,.8,1.953,3.538,3.538,0,0,0,2.089.566,4.751,4.751,0,0,0,3.223-1.133,4,4,0,0,0,1.328-3.223ZM127.4,35h-5.957V4.609H127.4ZM142.67,12.754a10.9,10.9,0,0,1,5.215,1.172,8.014,8.014,0,0,1,3.379,3.359,11.222,11.222,0,0,1,1.191,5.391v2.891H138.373a5.78,5.78,0,0,0,1.5,3.965,5.331,5.331,0,0,0,3.945,1.426,15.941,15.941,0,0,0,3.828-.43,19.48,19.48,0,0,0,3.575-1.289v4.609a14.2,14.2,0,0,1-3.4,1.172,21.06,21.06,0,0,1-4.277.371,13.36,13.36,0,0,1-5.82-1.211,9.036,9.036,0,0,1-3.965-3.691,12.4,12.4,0,0,1-1.426-6.25,14,14,0,0,1,1.289-6.367,8.769,8.769,0,0,1,3.633-3.828A10.972,10.972,0,0,1,142.67,12.754Zm.039,4.238a4,4,0,0,0-2.891,1.113,5.3,5.3,0,0,0-1.308,3.5h8.359a5.894,5.894,0,0,0-.488-2.363,3.672,3.672,0,0,0-1.367-1.641A4.045,4.045,0,0,0,142.709,16.992ZM169.7,12.754a8.094,8.094,0,0,1,5.625,1.914q2.128,1.894,2.129,6.094V35H171.5V22.246a6.025,6.025,0,0,0-.859-3.535,3.026,3.026,0,0,0-2.657-1.191q-2.733,0-3.73,1.855a11.546,11.546,0,0,0-1,5.352V35H157.3V13.164h4.551l.8,2.793h.332a6.029,6.029,0,0,1,1.739-1.836,7.645,7.645,0,0,1,2.324-1.035A10.607,10.607,0,0,1,169.7,12.754Z" fill="#fff"/>
      <path id="Path_5" data-name="Path 5" d="M32.926,8.345A17.622,17.622,0,0,0,26.886,5.82L25.416,0H20.985l-1.47,5.819a17.621,17.621,0,0,0-6.041,2.525L8.362,5.281l-.748.756L5.977,7.69l-.748.756,3.034,5.163a17.992,17.992,0,0,0-2.5,6.1L0,21.194v4.475l5.762,1.485a18.048,18.048,0,0,0,1.5,4.339,3.849,3.849,0,0,1-.114,3.66L5.228,38.418l.748.755L6.8,40l5.72-5.777a3.639,3.639,0,0,0,.528-4.449A12.151,12.151,0,0,1,14.964,14.7a11.9,11.9,0,0,1,16.472,0,12.15,12.15,0,0,1,1.921,15.072,3.639,3.639,0,0,0,.528,4.449L39.6,40l.819-.827.748-.755-1.918-3.264a3.849,3.849,0,0,1-.114-3.66,18.049,18.049,0,0,0,1.5-4.339L46.4,25.669V21.194l-5.762-1.485a17.993,17.993,0,0,0-2.5-6.1l3.034-5.163-.748-.756L38.786,6.036l-.748-.756Z" fill="#eb3300"/>
      <path id="Path_6" data-name="Path 6" d="M26.069,31.776V28.593h-.006a.99.99,0,0,1,.575-1.012c4.648-2.117,2.991-8.619-.835-10.634a40.449,40.449,0,0,0-.174,4.777l-4.883.008c.071-1.5.01-3.029.024-4.537-.03-.712-.78.109-1.071.247-2.305,2.066-4.035,6.322-1.553,8.863.513.7,2.083,1.259,2.219,2.019,0,.079,0,.17,0,.269v3.176a13.5,13.5,0,0,0-9.579,8.06h6.856a7.53,7.53,0,0,1,11.116,0h6.856A13.5,13.5,0,0,0,26.069,31.776Z" fill="#fff"/>
    </g>
  </g>
</svg>
